<svg width="217" height="37" viewBox="0 0 217 37" fill="none" xmlns="http://www.w3.org/2000/svg">
<g clip-path="url(#clip0_970_6851)">
<path fill-rule="evenodd" clip-rule="evenodd" d="M1.49023 18.2527C1.49023 15.9696 1.84531 13.9227 2.55546 12.0727C3.30506 10.1832 4.37028 8.56936 5.75113 7.19165C7.13197 5.81394 8.71008 4.7905 10.5644 4.08196C12.4581 3.33406 14.5491 2.94043 16.7979 2.94043C18.9283 2.94043 20.7826 3.17661 22.4396 3.6096C24.0572 4.0426 25.438 4.55432 26.5427 5.26285C27.6474 5.93203 28.4759 6.67993 29.0282 7.46719C29.5806 8.25445 29.8962 9.00235 29.8962 9.75025C29.8962 10.7737 29.5017 11.6397 28.7126 12.3482C27.9236 13.0174 27.0951 13.3717 26.2271 13.3717C25.438 13.3717 24.7673 13.0961 24.2545 12.5844C23.5443 11.8759 22.6369 11.2067 21.5717 10.6556C20.5459 10.0652 18.9678 9.75025 16.8768 9.75025C14.3124 9.75025 12.3397 10.3801 10.9589 11.679C9.57804 12.9387 8.90735 15.1036 8.90735 18.2527C8.90735 21.4017 9.57804 23.6061 10.9589 24.8657C12.3397 26.1253 14.2729 26.7551 16.8768 26.7551C19.0072 26.7551 20.5854 26.4796 21.5717 25.8891C22.6369 25.2987 23.5049 24.6295 24.2545 23.921C24.7673 23.4093 25.438 23.1337 26.2271 23.1337C27.0951 23.1337 27.9236 23.488 28.7126 24.1965C29.5017 24.8657 29.8962 25.7317 29.8962 26.7551C29.8962 27.4637 29.62 28.2116 29.0282 29.0382C28.4759 29.8254 27.6079 30.5733 26.5427 31.2425C25.438 31.9117 24.0966 32.4628 22.4396 32.8958C20.8221 33.3681 18.9283 33.5649 16.7979 33.5649C14.5096 33.5649 12.4581 33.1713 10.5644 32.4234C8.71008 31.7149 7.09252 30.6521 5.75113 29.3137C4.37028 27.936 3.34451 26.3615 2.55546 24.5114C1.84531 22.622 1.49023 20.5357 1.49023 18.292V18.2527ZM33.2891 22.2284V4.86922C33.2891 4.63304 33.368 4.39687 33.5653 4.20005C33.802 4.00323 34.0387 3.84578 34.3149 3.76706C34.6305 3.64897 34.9461 3.57024 35.2618 3.53088C35.6168 3.49151 35.9325 3.45215 36.1692 3.45215C36.4059 3.45215 36.7215 3.49151 37.116 3.53088C37.5106 3.57024 37.8656 3.64897 38.1813 3.76706C38.5363 3.88514 38.852 4.0426 39.0887 4.20005C39.3254 4.39687 39.4438 4.59368 39.4438 4.86922C39.4438 5.81394 39.4438 6.52247 39.4043 7.03419C39.4043 7.50655 39.4043 7.90018 39.3648 8.29382C39.3254 8.64808 39.3254 9.04171 39.2859 9.43535C39.2465 9.82898 39.2465 10.4194 39.2465 11.2067C39.2465 11.7578 39.5227 11.9546 40.0355 11.8365C40.509 11.7184 41.1797 11.561 41.9687 11.4429C42.7578 11.3248 43.5468 11.246 44.3753 11.246C46.1902 11.246 47.7683 11.5216 49.1097 12.112C50.4905 12.7025 51.6346 13.4897 52.5421 14.4738C53.4889 15.4579 54.1991 16.6388 54.6725 17.9771C55.1459 19.3155 55.4221 20.7326 55.4221 22.2677C55.4221 23.2912 55.4221 24.1965 55.4616 24.9838C55.501 25.771 55.501 26.5189 55.501 27.2275C55.5405 27.936 55.5405 28.6446 55.5799 29.3137C55.6194 29.9829 55.6194 30.6914 55.6194 31.4393C55.6194 31.6755 55.501 31.9117 55.3038 32.1085C55.067 32.3053 54.8303 32.4628 54.4752 32.5415C54.1596 32.6596 53.8046 32.7383 53.4495 32.7777C53.0944 32.817 52.7788 32.8564 52.5421 32.8564C52.3053 32.8564 51.9897 32.817 51.6346 32.7777C51.2796 32.7383 50.9245 32.6596 50.6089 32.5415C50.2933 32.4234 50.0171 32.266 49.7804 32.1085C49.5437 31.9117 49.4647 31.7149 49.4647 31.4393C49.4647 30.6914 49.4647 29.9829 49.5042 29.3137C49.5437 28.6446 49.5437 27.936 49.5437 27.2275C49.5831 26.5189 49.5831 25.771 49.6226 24.9838C49.662 24.1572 49.662 23.2518 49.662 22.2677C49.662 20.024 49.228 18.4495 48.3995 17.5442C47.571 16.6388 46.1902 16.1664 44.3359 16.1664C42.4816 16.1664 41.1402 16.6388 40.2723 17.5442C39.4438 18.4495 39.0098 20.024 39.0098 22.2677C39.0098 23.2912 39.0098 24.1965 39.0492 24.9838C39.0887 25.771 39.0887 26.5189 39.0887 27.2275C39.1281 27.936 39.1281 28.6446 39.1676 29.3137C39.207 29.9829 39.207 30.6914 39.207 31.4393C39.207 31.6755 39.0887 31.9117 38.8914 32.1085C38.6547 32.3053 38.418 32.4628 38.0629 32.5415C37.7473 32.6596 37.3922 32.7383 37.0371 32.7777C36.6821 32.817 36.3664 32.8564 36.1297 32.8564C35.893 32.8564 35.5774 32.817 35.2223 32.7777C34.8672 32.7383 34.5122 32.6596 34.1965 32.5415C33.8809 32.4234 33.6048 32.266 33.368 32.1085C33.1313 31.9117 33.0524 31.7149 33.0524 31.4393C33.0524 30.6914 33.0524 29.9829 33.0919 29.3137C33.1313 28.6446 33.1313 27.936 33.1313 27.2275C33.1708 26.5189 33.1708 25.771 33.2102 24.9838C33.2497 24.1572 33.2497 23.2518 33.2497 22.2677L33.2891 22.2284ZM62.5236 11.6003C62.7603 11.6003 63.0759 11.6397 63.431 11.679C63.7861 11.7184 64.1412 11.7971 64.4568 11.9152C64.7724 12.0333 65.0486 12.1908 65.2853 12.3482C65.522 12.545 65.6009 12.7418 65.6009 13.0174C65.6009 13.7653 65.6009 14.5132 65.5615 15.1824C65.522 15.8515 65.522 16.5207 65.4826 17.2292C65.4826 17.9378 65.4826 18.6857 65.4431 19.4729C65.4036 20.2602 65.4036 21.1656 65.4036 22.189C65.4036 23.2124 65.4036 24.1178 65.4431 24.9051C65.4826 25.6923 65.4826 26.4402 65.4826 27.1488C65.522 27.8573 65.522 28.5658 65.5615 29.235C65.6009 29.9042 65.6009 30.6127 65.6009 31.3606C65.6009 31.6362 65.4826 31.8723 65.2853 32.0691C65.0486 32.2266 64.8119 32.384 64.4568 32.4628C64.1412 32.5809 63.7861 32.6596 63.431 32.699C63.0759 32.7383 62.7603 32.7777 62.5236 32.7777C62.2869 32.7777 61.9713 32.7383 61.6162 32.699C61.2611 32.6596 60.906 32.5809 60.5904 32.4628C60.2748 32.3447 59.9986 32.2266 59.7619 32.0691C59.5252 31.8723 59.4463 31.6362 59.4463 31.3606C59.4463 30.6127 59.4463 29.9042 59.4857 29.235C59.5252 28.5658 59.5252 27.8573 59.5252 27.1488C59.5646 26.4402 59.5646 25.6923 59.6041 24.9051C59.6435 24.0784 59.6436 23.1731 59.6436 22.189C59.6436 21.1656 59.6435 20.2602 59.6041 19.4729C59.5646 18.6857 59.5646 17.9378 59.5252 17.2292C59.5252 16.5207 59.5252 15.8515 59.4857 15.1824C59.4463 14.5132 59.4463 13.7653 59.4463 13.0174C59.4463 12.7812 59.5646 12.545 59.7619 12.3482C59.9986 12.1514 60.2353 11.9939 60.5904 11.9152C60.906 11.7971 61.2611 11.7184 61.6162 11.679C61.9713 11.6397 62.2869 11.6003 62.5236 11.6003ZM72.9391 3.45215C73.1758 3.45215 73.4915 3.49151 73.8465 3.53088C74.2016 3.57024 74.5567 3.64897 74.8723 3.76706C75.1879 3.88514 75.4641 4.0426 75.7008 4.20005C75.9375 4.39687 76.0164 4.59368 76.0164 4.86922C76.0164 5.61712 76.0164 6.56184 75.977 7.70337C75.9375 8.80554 75.9375 9.94707 75.8981 11.1673C75.8981 12.3482 75.8981 13.5685 75.8586 14.7887C75.8192 15.9696 75.8192 17.1112 75.8192 18.1346C75.8192 19.158 75.8192 20.2602 75.8586 21.4805C75.8981 22.7007 75.8981 23.921 75.8981 25.1412C75.9375 26.3221 75.9375 27.503 75.977 28.6052C76.0164 29.7074 76.0164 30.6127 76.0164 31.3606C76.0164 31.5968 75.8981 31.833 75.7008 32.0298C75.4641 32.2266 75.2274 32.384 74.8723 32.4628C74.5567 32.5809 74.2016 32.6596 73.8465 32.699C73.4915 32.7383 73.1758 32.7777 72.9391 32.7777C72.7024 32.7777 72.3868 32.7383 72.0317 32.699C71.6766 32.6596 71.3216 32.5809 71.0059 32.4628C70.6903 32.3447 70.4141 32.1872 70.1774 32.0298C69.9407 31.833 69.8618 31.6362 69.8618 31.3606C69.8618 30.6127 69.8618 29.668 69.9013 28.6052C69.9407 27.503 69.9407 26.3221 69.9407 25.1412C69.9802 23.921 69.9802 22.7007 70.0196 21.4805C70.0591 20.2602 70.0591 19.158 70.0591 18.1346C70.0591 17.1112 70.0591 15.9696 70.0196 14.7887C69.9802 13.5685 69.9802 12.3482 69.9407 11.1673C69.9407 9.94707 69.9407 8.80554 69.9013 7.70337C69.8618 6.6012 69.8618 5.65649 69.8618 4.86922C69.8618 4.63304 69.9802 4.39687 70.1774 4.20005C70.4141 4.00323 70.6509 3.84578 71.0059 3.76706C71.3216 3.64897 71.6766 3.57024 72.0317 3.53088C72.3868 3.49151 72.7024 3.45215 72.9391 3.45215ZM90.3378 11.2067C90.6534 11.2067 91.0479 11.246 91.4819 11.2854C91.9159 11.3248 92.3499 11.4035 92.7838 11.4822C93.2573 11.5216 93.6913 11.6003 94.1252 11.679C94.5592 11.7184 94.9143 11.7971 95.2299 11.8365C95.7428 11.9152 96.019 11.7184 96.019 11.1673C95.9795 10.5769 95.9401 9.71089 95.9006 8.64808C95.8612 7.54592 95.8612 6.2863 95.8612 4.86922C95.8612 4.63304 95.9401 4.39687 96.1373 4.20005C96.374 4.00323 96.6108 3.84578 96.8869 3.76706C97.2025 3.64897 97.5182 3.57024 97.8338 3.53088C98.1889 3.49151 98.5045 3.45215 98.7412 3.45215C98.9779 3.45215 99.2541 3.49151 99.6092 3.53088C99.9642 3.57024 100.28 3.64897 100.556 3.76706C100.872 3.88514 101.108 4.0426 101.306 4.20005C101.542 4.39687 101.621 4.59368 101.621 4.86922C101.621 5.89266 101.582 7.15228 101.542 8.72681C101.503 10.262 101.463 11.8759 101.424 13.5291C101.385 15.143 101.306 16.7569 101.266 18.292C101.227 19.8272 101.227 21.1262 101.227 22.1496C101.227 23.0156 101.227 23.8029 101.266 24.5508C101.306 25.2987 101.306 26.0072 101.345 26.7158C101.385 27.3849 101.424 28.0935 101.463 28.7626C101.503 29.4318 101.542 30.1797 101.582 30.9276C101.621 31.4 101.463 31.7936 101.187 32.1085C100.872 32.4234 100.477 32.5415 100.004 32.4628C99.6881 32.4234 99.3724 32.4234 99.0963 32.384C98.8596 32.3447 98.5439 32.3447 98.1494 32.3447C97.242 32.3447 96.4135 32.384 95.7033 32.4628C95.0326 32.5415 94.362 32.6202 93.7702 32.7383C93.1784 32.8564 92.626 32.9351 92.1131 33.0139C91.6003 33.0926 91.0085 33.1319 90.3772 33.1319C88.7202 33.1319 87.1815 32.8564 85.8402 32.3053C84.4988 31.7936 83.3546 31.0457 82.3683 30.101C81.4215 29.1169 80.6719 27.9754 80.1195 26.637C79.6066 25.2593 79.3305 23.7635 79.3305 22.1103C79.3305 20.457 79.6066 18.9612 80.1195 17.6229C80.6719 16.2452 81.4215 15.1036 82.3683 14.1589C83.3546 13.1748 84.4988 12.4269 85.8402 11.9152C87.221 11.3641 88.6808 11.2067 90.3378 11.2067ZM90.3378 28.3296C92.1921 28.3296 93.6123 27.8967 94.5987 26.9913C95.585 26.0859 96.0584 24.4721 96.0584 22.2284C96.0584 19.9847 95.585 18.4101 94.5987 17.5048C93.6123 16.5994 92.1921 16.1271 90.3378 16.1271C88.4835 16.1271 87.0632 16.5994 86.0769 17.5048C85.0906 18.4101 84.6171 19.9847 84.6171 22.2284C84.6171 24.4721 85.0906 26.0859 86.0769 26.9913C87.0632 27.8967 88.4835 28.3296 90.3378 28.3296ZM59.6041 6.64056C59.6041 5.61712 59.8803 4.7905 60.4721 4.23941C61.0639 3.64897 61.8529 3.37342 62.8787 3.37342C63.9044 3.37342 64.733 3.64897 65.2853 4.23941C65.8771 4.82986 66.1533 5.61712 66.1533 6.64056C66.1533 7.66401 65.8771 8.49063 65.2853 9.04171C64.6935 9.63216 63.9044 9.9077 62.8787 9.9077C61.8529 9.9077 61.0244 9.63216 60.4721 9.04171C59.8803 8.45127 59.6041 7.66401 59.6041 6.64056Z" fill="white"/>
<path fill-rule="evenodd" clip-rule="evenodd" d="M195.913 3.45245C196.15 3.45245 196.466 3.49181 196.821 3.53118C197.176 3.57054 197.531 3.64927 197.847 3.76736C198.162 3.88544 198.438 4.0429 198.675 4.20035C198.912 4.39717 198.991 4.59398 198.991 4.86952C198.991 5.61742 198.991 6.56214 198.951 7.70367C198.912 8.80583 198.912 9.94736 198.872 11.1676C198.872 12.3485 198.872 13.5688 198.833 14.789C198.794 15.9699 198.794 17.1115 198.794 18.1349C198.794 19.1583 198.794 20.2605 198.833 21.4808C198.872 22.701 198.872 23.9213 198.872 25.1415C198.912 26.3224 198.912 27.5033 198.951 28.6055C198.991 29.7076 198.991 30.613 198.991 31.3609C198.991 31.5971 198.872 31.8333 198.675 32.0301C198.438 32.2269 198.202 32.3843 197.847 32.4631C197.531 32.5812 197.176 32.6599 196.821 32.6992C196.466 32.7386 196.15 32.778 195.913 32.778C195.677 32.778 195.361 32.7386 195.006 32.6992C194.651 32.6599 194.296 32.5812 193.98 32.4631C193.665 32.345 193.388 32.1875 193.152 32.0301C192.915 31.8333 192.836 31.6364 192.836 31.3609C192.836 30.613 192.836 29.6683 192.876 28.6055C192.915 27.5033 192.915 26.3224 192.915 25.1415C192.955 23.9213 192.955 22.701 192.994 21.4808C193.033 20.2605 193.033 19.1583 193.033 18.1349C193.033 17.1115 193.033 15.9699 192.994 14.789C192.955 13.5688 192.955 12.3485 192.915 11.1676C192.915 9.94736 192.915 8.80583 192.876 7.70367C192.836 6.6015 192.836 5.65679 192.836 4.86952C192.836 4.63334 192.955 4.39717 193.152 4.20035C193.388 4.00353 193.625 3.84608 193.98 3.76736C194.296 3.64927 194.651 3.57054 195.006 3.53118C195.361 3.49181 195.677 3.45245 195.913 3.45245ZM185.695 3.45245C185.932 3.45245 186.248 3.49181 186.603 3.53118C186.958 3.57054 187.313 3.64927 187.628 3.76736C187.944 3.88544 188.22 4.0429 188.457 4.20035C188.694 4.39717 188.773 4.59398 188.773 4.86952C188.773 5.61742 188.773 6.56214 188.733 7.70367C188.694 8.80583 188.694 9.94736 188.654 11.1676C188.654 12.3485 188.654 13.5688 188.615 14.789C188.575 15.9699 188.575 17.1115 188.575 18.1349C188.575 19.1583 188.575 20.2605 188.615 21.4808C188.654 22.701 188.654 23.9213 188.654 25.1415C188.694 26.3224 188.694 27.5033 188.733 28.6055C188.773 29.7076 188.773 30.613 188.773 31.3609C188.773 31.5971 188.654 31.8333 188.457 32.0301C188.22 32.2269 187.983 32.3843 187.628 32.4631C187.313 32.5812 186.958 32.6599 186.603 32.6992C186.248 32.7386 185.932 32.778 185.695 32.778C185.459 32.778 185.143 32.7386 184.788 32.6992C184.433 32.6599 184.078 32.5812 183.762 32.4631C183.446 32.345 183.17 32.1875 182.934 32.0301C182.697 31.8333 182.618 31.6364 182.618 31.3609C182.618 30.613 182.618 29.6683 182.657 28.6055C182.697 27.5033 182.697 26.3224 182.697 25.1415C182.736 23.9213 182.736 22.701 182.776 21.4808C182.815 20.2605 182.815 19.1583 182.815 18.1349C182.815 17.1115 182.815 15.9699 182.776 14.789C182.736 13.5688 182.736 12.3485 182.697 11.1676C182.697 9.94736 182.697 8.80583 182.657 7.70367C182.618 6.6015 182.618 5.65679 182.618 4.86952C182.618 4.63334 182.736 4.39717 182.934 4.20035C183.17 4.00353 183.407 3.84608 183.762 3.76736C184.078 3.64927 184.433 3.57054 184.788 3.53118C185.143 3.49181 185.459 3.45245 185.695 3.45245ZM171.69 6.64086C171.69 5.61742 171.966 4.7908 172.557 4.23971C173.149 3.64927 173.938 3.37372 174.964 3.37372C175.99 3.37372 176.818 3.64927 177.371 4.23971C177.962 4.83016 178.239 5.61742 178.239 6.64086C178.239 7.6643 177.962 8.49093 177.371 9.04201C176.779 9.63246 175.99 9.908 174.964 9.908C173.938 9.908 173.11 9.63246 172.557 9.04201C171.966 8.45157 171.69 7.6643 171.69 6.64086ZM175.28 11.6006C175.516 11.6006 175.832 11.64 176.187 11.6793C176.542 11.7187 176.897 11.7974 177.213 11.9155C177.529 12.0336 177.805 12.1911 178.041 12.3485C178.278 12.5453 178.357 12.7421 178.357 13.0177C178.357 13.7656 178.357 14.5135 178.318 15.1827C178.278 15.8518 178.278 16.521 178.239 17.2295C178.239 17.9381 178.239 18.686 178.199 19.4732C178.16 20.2605 178.16 21.1658 178.16 22.1893C178.16 23.2127 178.16 24.1181 178.199 24.9053C178.239 25.6926 178.239 26.4405 178.239 27.149C178.278 27.8576 178.278 28.5661 178.318 29.2353C178.357 29.9045 178.357 30.613 178.357 31.3609C178.357 31.6364 178.239 31.8726 178.041 32.0694C177.805 32.2269 177.568 32.3843 177.213 32.4631C176.897 32.5812 176.542 32.6599 176.187 32.6992C175.832 32.7386 175.516 32.778 175.28 32.778C175.043 32.778 174.727 32.7386 174.372 32.6992C174.017 32.6599 173.662 32.5812 173.347 32.4631C173.031 32.345 172.755 32.2269 172.518 32.0694C172.281 31.8726 172.202 31.6364 172.202 31.3609C172.202 30.613 172.202 29.9045 172.242 29.2353C172.281 28.5661 172.281 27.8576 172.281 27.149C172.321 26.4405 172.321 25.6926 172.36 24.9053C172.4 24.0787 172.4 23.1734 172.4 22.1893C172.4 21.1658 172.4 20.2605 172.36 19.4732C172.321 18.686 172.321 17.9381 172.281 17.2295C172.281 16.521 172.281 15.8518 172.242 15.1827C172.202 14.5135 172.202 13.7656 172.202 13.0177C172.202 12.7815 172.321 12.5453 172.518 12.3485C172.755 12.1517 172.991 11.9942 173.347 11.9155C173.662 11.7974 174.017 11.7187 174.372 11.6793C174.727 11.64 175.043 11.6006 175.28 11.6006ZM152.037 3.44895C152.274 3.44895 152.594 3.49181 152.949 3.53118C153.305 3.57054 153.66 3.64927 153.975 3.76736C154.291 3.88544 154.567 4.0429 154.804 4.20035C155.04 4.39717 155.119 4.59398 155.119 4.86952C155.119 5.69615 155.119 6.75895 155.08 7.97921C155.08 9.1601 155.08 10.4197 155.04 11.6793C155.001 12.939 155.001 14.1986 154.962 15.4188C154.922 16.5997 154.922 17.6625 154.922 18.5285C154.922 19.119 155.08 19.3945 155.356 19.3945C155.553 19.3945 155.79 19.2764 156.066 19.0009C156.461 18.6072 156.895 18.1743 157.368 17.6625C157.881 17.1508 158.394 16.6391 158.867 16.1274C159.38 15.5763 159.893 15.0646 160.367 14.5922C160.879 14.0805 161.353 13.6081 161.708 13.2539C162.063 12.8996 162.497 12.6241 162.97 12.3879C163.483 12.1517 163.996 12.073 164.47 12.073H168.139C168.612 12.073 168.928 12.1911 169.007 12.3879C169.125 12.6241 169.007 12.8996 168.652 13.2539C168.099 13.8049 167.468 14.4741 166.679 15.2614C165.929 16.0486 165.14 16.8359 164.351 17.6625C163.562 18.4892 162.813 19.2371 162.142 19.985C161.471 20.7329 160.919 21.2839 160.564 21.7169C160.248 22.1106 160.248 22.4648 160.564 22.8585C160.958 23.2521 161.471 23.8425 162.142 24.5904C162.813 25.3383 163.562 26.0862 164.351 26.9129C165.14 27.7395 165.929 28.5268 166.679 29.314C167.429 30.1013 168.099 30.7705 168.652 31.3215C169.007 31.6758 169.125 31.9513 169.007 32.1875C168.928 32.4237 168.652 32.5024 168.139 32.5024H164.47C163.996 32.5024 163.483 32.3843 162.97 32.1875C162.497 31.9513 162.063 31.6758 161.708 31.3215C161.313 30.9279 160.879 30.4949 160.367 29.9832C159.893 29.4715 159.38 28.9597 158.867 28.448C158.394 27.8969 157.881 27.3852 157.368 26.9129C156.895 26.4011 156.421 25.9288 156.066 25.5745C155.79 25.299 155.553 25.1809 155.356 25.1809C155.08 25.1809 154.962 25.4564 155.001 26.0469C155.04 26.7948 155.04 27.6608 155.08 28.6448C155.119 29.6683 155.119 30.613 155.119 31.5577C155.119 31.7939 155.001 32.0301 154.804 32.2269C154.567 32.4237 154.33 32.5812 153.975 32.6599C153.66 32.778 153.305 32.8567 152.949 32.8961C152.594 32.9354 152.279 32.9748 152.042 32.9748C151.805 32.9748 151.49 32.9354 151.135 32.8961C150.78 32.8567 150.424 32.778 150.109 32.6599C149.793 32.5418 149.517 32.3843 149.28 32.2269C149.044 32.0301 148.965 31.8333 148.965 31.5577C148.965 30.8098 148.965 30.1013 149.004 29.4321C149.044 28.7629 149.044 28.0544 149.044 27.3459C149.083 26.6373 149.083 25.8894 149.123 25.1022C149.162 24.2755 149.162 23.3702 149.162 22.3861C149.162 21.3627 149.162 20.0637 149.123 18.5285C149.083 16.9934 149.083 15.3795 149.044 13.7656C149.044 12.1123 149.044 10.4984 149.004 8.96329C148.965 7.38876 148.965 6.08978 148.965 5.1057C148.965 4.86952 149.078 4.39366 149.276 4.19685C149.512 4.00003 149.749 3.84258 150.104 3.76385C150.42 3.64576 150.775 3.56704 151.13 3.52767C151.485 3.48831 151.801 3.44895 152.037 3.44895ZM124.622 23.9213C124.938 23.9213 125.372 24.0787 125.924 24.3936C126.477 24.7085 127.187 25.0234 127.976 25.3383C128.765 25.6926 129.672 26.0075 130.659 26.2831C131.645 26.598 132.671 26.7554 133.736 26.7554C135.156 26.7554 136.182 26.6373 136.813 26.3618C137.405 26.0469 137.721 25.6139 137.721 25.0628C137.721 24.3543 137.287 23.7638 136.458 23.2915C135.669 22.8191 134.643 22.4255 133.46 22.0318C132.237 21.5988 130.935 21.1658 129.475 20.6541C128.055 20.1818 126.713 19.552 125.49 18.7647C124.267 18.0168 123.242 17.0327 122.413 15.8912C121.624 14.6709 121.229 13.1751 121.229 11.4038C121.229 8.56965 122.334 6.44405 124.544 5.06634C126.753 3.64927 129.633 2.90137 133.184 2.90137C134.801 2.90137 136.261 3.09818 137.563 3.45245C138.865 3.80672 139.93 4.23971 140.837 4.75143C141.784 5.22379 142.573 5.73551 143.165 6.20787C143.796 6.68023 144.27 7.11322 144.546 7.38876C144.901 7.74303 145.019 8.21539 145.019 8.80583C144.98 9.35692 144.822 9.94736 144.507 10.4984C144.191 11.0102 143.796 11.4825 143.323 11.9155C142.85 12.3092 142.297 12.4666 141.745 12.4666C141.469 12.4666 141.035 12.3092 140.443 11.9942C139.891 11.6793 139.18 11.3644 138.391 11.0495C137.602 10.6953 136.695 10.3804 135.709 10.1048C134.722 9.78991 133.697 9.63246 132.631 9.63246C131.211 9.63246 130.185 9.78991 129.554 10.1048C128.962 10.3804 128.647 10.774 128.647 11.3644C128.647 12.073 129.041 12.6634 129.83 13.1358C130.659 13.5688 131.684 13.9624 132.907 14.3954C134.131 14.8284 135.432 15.2614 136.892 15.7731C138.313 16.2455 139.654 16.8753 140.877 17.6625C142.1 18.4104 143.086 19.3945 143.875 20.6148C144.704 21.7957 145.138 23.2521 145.138 25.0234C145.138 27.8576 144.033 29.9832 141.824 31.4396C139.614 32.8567 136.734 33.5259 133.184 33.5259C131.566 33.5259 130.106 33.3291 128.804 32.9748C127.502 32.6205 126.398 32.2269 125.451 31.7152C124.544 31.2034 123.794 30.6917 123.163 30.18C122.571 29.6683 122.097 29.2353 121.782 28.9991C121.427 28.6448 121.308 28.2118 121.308 27.6214C121.348 27.031 121.506 26.4405 121.821 25.9288C122.137 25.3777 122.531 24.9053 123.005 24.5117C123.478 24.0787 124.031 23.8819 124.583 23.8819L124.622 23.9213Z" fill="white"/>
<path fill-rule="evenodd" clip-rule="evenodd" d="M202.975 33.132C204.395 33.0926 205.5 32.7384 206.289 32.1479C207.117 31.5575 207.512 30.6128 207.512 29.2744V23.37C207.512 20.5752 209.011 18.9219 211.97 18.4102V18.174C209.011 17.6623 207.512 16.0091 207.512 13.2143V7.27045C207.512 5.93211 207.117 4.98739 206.328 4.39695C205.539 3.8065 204.435 3.4916 202.975 3.45223V0.5C205.5 0.539363 207.472 1.09045 208.893 2.11389C210.352 3.17669 211.063 4.79058 211.063 6.95555V12.8994C211.063 14.2771 211.497 15.2612 212.325 15.891C213.193 16.4814 214.456 16.757 216.034 16.757V19.7486C214.416 19.7879 213.193 20.0635 212.325 20.6539C211.497 21.2444 211.063 22.1891 211.063 23.5668V29.6287C211.063 31.7937 210.313 33.3682 208.814 34.431C207.315 35.5332 205.381 36.0449 202.975 36.0449V33.0926V33.132ZM119.256 3.45223C117.836 3.4916 116.731 3.84586 115.942 4.43631C115.114 5.02676 114.719 5.97147 114.719 7.30982V13.2143C114.719 16.0091 113.22 17.6623 110.261 18.174V18.4102C113.22 18.9219 114.719 20.5752 114.719 23.37V29.3138C114.719 30.6521 115.114 31.5968 115.903 32.1873C116.692 32.7777 117.796 33.0926 119.256 33.132V36.0842C116.731 36.0449 114.759 35.4938 113.338 34.4704C111.878 33.4076 111.168 31.7937 111.168 29.6287V23.6849C111.168 22.3072 110.734 21.3231 109.906 20.6933C109.038 20.1028 107.775 19.8273 106.197 19.8273V16.8357C107.815 16.7963 109.038 16.5208 109.906 15.9303C110.734 15.3399 111.168 14.3952 111.168 13.0175V6.95555C111.168 4.79058 111.918 3.21605 113.417 2.15325C114.916 1.05108 116.85 0.539363 119.256 0.539363V3.4916V3.45223Z" fill="white"/>
</g>
<defs>
<clipPath id="clip0_970_6851">
<rect width="217" height="36" fill="white" transform="translate(0 0.5)"/>
</clipPath>
</defs>
</svg>
